# xmcd
#
# Track frame offsets: 
#        150
#        20502
#        40755
#        60600
#        83377
#        103525
#        124367
#        138465
#        158785
#        171922
#        193397
#        211020
#        224665
#        241650
#        258610
#        279187
#
# Disc length: 3918 seconds
#
# Revision: 2
# Processed by: cddbd v1.5.2PL0 Copyright (c) Steve Scherf et al.
# Submitted via: ExactAudioCopy v1.3
#
DISCID=e20f4c10
DTITLE=Various Artist - Blues Revue sampler June-July 2002
DYEAR=2002
DGENRE=Blues
TTITLE0=W.C. Clark - Let it rain
TTITLE1=Charlie Musselwhite - Blues overtook me
TTITLE2=The Spikedrivers - Midnight mademoiselle
TTITLE3=Kay Kay and The Rays - Hey big boy
TTITLE4=The Groove Hogs - Blues is my business
TTITLE5=Jerry Portnoy - Lazy
TTITLE6=Big Daddy G - Topless
TTITLE7=KC Ray - Swamp funk blues
TTITLE8=Corey Harris - Frankie Doris
TTITLE9=Jennifer Lane - Sweet long cool drink a water
TTITLE10=Duke Robillard - Buy me a dog
TTITLE11=Georgie Bonds - Billy diamond down
TTITLE12=D.C. Minner and Selby - Gotta help me
TTITLE13=Lou Pride - Livin' a lie
TTITLE14=Matt Leddy and The Meat Cutters - No daddy
TTITLE15=Otis Taylor - Just live your life
EXTD=
EXTT0=
EXTT1=
EXTT2=
EXTT3=
EXTT4=
EXTT5=
EXTT6=
EXTT7=
EXTT8=
EXTT9=
EXTT10=
EXTT11=
EXTT12=
EXTT13=
EXTT14=
EXTT15=
PLAYORDER=
